<svg height="512" viewBox="0 0 512 512" width="512" xmlns="http://www.w3.org/2000/svg"><g id="filled_outline" data-name="filled outline"><path d="m360 160a103.994 103.994 0 0 1 -48 87.65v40.35l-112-1v-39.35a104.008 104.008 0 0 1 52-191.57c1.33-.05 2.66-.08 4-.08a104 104 0 0 1 104 104z" fill="#e4e4e2"/><path d="m352 160a103.994 103.994 0 0 1 -48 87.65v40.35l-104-1v-39.35a104.008 104.008 0 0 1 52-191.57 103.992 103.992 0 0 1 100 103.92z" fill="#ebebeb"/><path d="m272 178-32-1v-113h32z" fill="#c3c3c3"/><path d="m264 178-24-1v-113h24z" fill="#cbcbcb"/><path d="m238.085 24h33.915a32 32 0 0 1 32 32v16a0 0 0 0 1 0 0h-97.915a0 0 0 0 1 0 0v-16a32 32 0 0 1 32-32z" fill="#c7463b"/><circle cx="256" cy="264" fill="#6cbae5" r="16"/><circle cx="224" cy="264" fill="#85bc94" r="16"/><circle cx="288" cy="264" fill="#b94137" r="16"/><circle cx="240" cy="232" fill="#fbb540" r="16"/><circle cx="208" cy="232" fill="#b94137" r="16"/><circle cx="272" cy="232" fill="#85bc94" r="16"/><circle cx="304" cy="232" fill="#6cbae5" r="16"/><circle cx="216" cy="200" fill="#85bc94" r="16"/><circle cx="184" cy="208" fill="#fbb540" r="16"/><circle cx="248" cy="200" fill="#6cbae5" r="16"/><circle cx="280" cy="200" fill="#fbb540" r="16"/><circle cx="224" cy="176" fill="#b94137" r="16"/><circle cx="256" cy="176" fill="#fbb540" r="16"/><circle cx="288" cy="176" fill="#85bc94" r="16"/><circle cx="312" cy="200" fill="#b94137" r="16"/><path d="m353.83 195.37a103.735 103.735 0 0 1 -15.14 27.72 16 16 0 1 1 15.14-27.72z" fill="#85bc94"/><path d="m198.648 131.561-14.328-7.122a80.36 80.36 0 0 1 27.23-30.963l8.9 13.3a64.331 64.331 0 0 0 -21.802 24.785z" fill="#f9f9f9"/><path d="m192 160h-16a80.44 80.44 0 0 1 1.982-17.771l15.6 3.542a64.321 64.321 0 0 0 -1.582 14.229z" fill="#f9f9f9"/><path d="m192 280h128a16 16 0 0 1 16 16v160a0 0 0 0 1 0 0h-160a0 0 0 0 1 0 0v-160a16 16 0 0 1 16-16z" fill="#c7463b"/><path d="m304 280v40a24 24 0 0 1 -24 24h-48a24 24 0 0 1 -24-24v-40z" fill="#a83b32"/><path d="m280 336a24 24 0 1 1 -2.34-10.34 24.006 24.006 0 0 1 2.34 10.34z" fill="#c3c3c3"/><path d="m360 488h-208v-16a16 16 0 0 1 16-16h176a16 16 0 0 1 16 16z" fill="#c7463b"/><path d="m277.66 325.66-32 32a24.01 24.01 0 0 1 -11.32-11.32l32-32a24.01 24.01 0 0 1 11.32 11.32z" fill="#a8a8a8"/><path d="m176 442.465h160v13.535h-160z" fill="#a83b32"/><path d="m256 392a32 32 0 0 1 32 32v32a0 0 0 0 1 0 0h-64a0 0 0 0 1 0 0v-32a32 32 0 0 1 32-32z" fill="#9e372f"/><path d="m168 296v152a24.028 24.028 0 0 0 -24 24v16a8 8 0 0 0 8 8h208a8 8 0 0 0 8-8v-16a24.028 24.028 0 0 0 -24-24v-152a24.028 24.028 0 0 0 -24-24v-20.074a112.016 112.016 0 0 0 -8-188.926v-7a40.045 40.045 0 0 0 -40-40h-33.915a40.045 40.045 0 0 0 -40 40v8.134a112.014 112.014 0 0 0 -6.085 187.792v20.074a24.028 24.028 0 0 0 -24 24zm176 168a8.009 8.009 0 0 1 8 8v8h-192v-8a8.009 8.009 0 0 1 8-8zm-112-16v-24a24 24 0 0 1 48 0v24zm80-240a8 8 0 1 1 8-8 8.009 8.009 0 0 1 -8 8zm-40.559 123.874a15.941 15.941 0 0 1 -19.567 19.567zm-30.882 8.252a15.941 15.941 0 0 1 19.567-19.567zm15.441-36.126a32.036 32.036 0 0 0 -31.922 29.882 16 16 0 0 1 -8.078-13.882v-32h80v32a16 16 0 0 1 -8.078 13.882 32.036 32.036 0 0 0 -31.922-29.882zm24-72a8 8 0 1 1 -8-8 8.009 8.009 0 0 1 8 8zm-8-32a8 8 0 1 1 8 8 8.009 8.009 0 0 1 -8-8zm-8-46.612a23.757 23.757 0 0 0 -16 0v-73.388h16zm-14.933 18.612a8.007 8.007 0 0 1 13.869 0 7.875 7.875 0 0 1 1.064 4 7.98 7.98 0 0 1 -1.619 4.8 23.87 23.87 0 0 0 -14.381-4.8 7.88 7.88 0 0 1 1.067-4zm14.933 92a8 8 0 1 1 -8-8 8.009 8.009 0 0 1 8 8zm-8-64a8 8 0 1 1 -8-8 8.009 8.009 0 0 1 8 8zm-8 32a8 8 0 1 1 -8-8 8.009 8.009 0 0 1 8 8zm-17.619-51.2a23.87 23.87 0 0 0 -14.381-4.8 8 8 0 1 1 14.381 4.8zm1.619 83.2a8 8 0 1 1 -8-8 8.009 8.009 0 0 1 8 8zm-8-64a8 8 0 1 1 -8-8 8.009 8.009 0 0 1 8 8zm-8 32a8 8 0 1 1 -8-8 8.009 8.009 0 0 1 8 8zm72 40a8 8 0 1 1 8-8 8.009 8.009 0 0 1 -8 8zm6.381-91.2a23.87 23.87 0 0 0 -14.381-4.8 8 8 0 1 1 14.381 4.8zm9.619 43.2a8 8 0 1 1 -8 8 8.009 8.009 0 0 1 8-8zm32.907-12.316a7.983 7.983 0 0 1 6.364-11.647 95.481 95.481 0 0 1 -6.364 11.647zm-32.907-131.684a7.955 7.955 0 0 0 3.684-.9 96.124 96.124 0 0 1 41.157 105.4 24.228 24.228 0 0 0 -4.841-.5 23.844 23.844 0 0 0 -11.777 3.1 24 24 0 0 0 -20.223-11.1 23.992 23.992 0 0 0 -32-22.624v-73.376zm-89.915-24a24.028 24.028 0 0 1 24-24h33.915a24.028 24.028 0 0 1 24 24v8h-81.915zm-48.441 136.562a96.184 96.184 0 0 1 37.916-112.975 7.988 7.988 0 0 0 2.525.413h25.915v73.376a23.988 23.988 0 0 0 -31.343 28.186 24.19 24.19 0 0 0 -4.88 5.539 23.942 23.942 0 0 0 -30.133 5.461zm18.356 23.438a8 8 0 1 1 8-8 8.009 8.009 0 0 1 -8 8zm16 72v32a32.043 32.043 0 0 0 28.168 31.763 31.972 31.972 0 0 0 55.664 0 32.043 32.043 0 0 0 28.168-31.763v-32h8a8.009 8.009 0 0 1 8 8v152h-32v-24a40 40 0 0 0 -80 0v24h-32v-152a8.009 8.009 0 0 1 8-8z"/><path d="m220.45 106.772-8.9-13.3a80.36 80.36 0 0 0 -27.23 30.963l14.328 7.122a64.331 64.331 0 0 1 21.802-24.785z"/><path d="m193.586 145.771-15.6-3.542a80.44 80.44 0 0 0 -1.986 17.771h16a64.321 64.321 0 0 1 1.586-14.229z"/></g></svg>